<mxfile host="app.diagrams.net" modified="2023-10-09T09:00:38.982Z" agent="Mozilla/5.0 (Macintosh; Intel Mac OS X 10_15_7) AppleWebKit/537.36 (KHTML, like Gecko) Chrome/116.0.0.0 Safari/537.36" version="22.0.4" etag="CT7yQ5MPKa2H_4sFvhAQ" type="github">
  <diagram name="Page-1" id="duZnf7G51NvPBJUZQHkb">
    <mxGraphModel>
      <root>
        <mxCell id="0" />
        <mxCell id="1" parent="0" />
      </root>
    </mxGraphModel>
  </diagram>
</mxfile>
